<svg width="124" height="28" viewBox="0 0 124 28" fill="none" xmlns="http://www.w3.org/2000/svg">
<path d="M63.7854 9.54248C65.8923 9.54248 67.5104 10.0481 68.6397 11.0595C69.769 12.0539 70.3336 13.5625 70.3336 15.5851V21.7127C70.3336 22.732 69.5073 23.5583 68.488 23.5583V23.5583C67.4687 23.5583 66.6423 22.732 66.6423 21.7127V21.5473C65.9007 22.8115 64.5186 23.5492 62.4959 23.5492C61.4509 23.5492 60.5407 23.3722 59.7654 23.0183C59.0069 22.6643 58.4254 22.1755 58.0209 21.5519C57.6163 20.9282 57.4141 20.2203 57.4141 19.4281C57.4141 18.164 57.886 17.1695 58.8299 16.4447C59.7907 15.7199 61.2655 15.3576 63.2544 15.3576H66.3895C66.3895 14.4979 66.1282 13.8406 65.6057 13.3855C65.0832 12.9135 64.2994 12.6776 63.2544 12.6776C62.5296 12.6776 61.8133 12.7956 61.1054 13.0315C61.0433 13.0512 60.9821 13.0716 60.9216 13.0926C60.038 13.4002 58.9371 13.1661 58.5095 12.3339V12.3339C58.1713 11.6756 58.3661 10.8562 59.0349 10.5393C59.5064 10.3159 60.0195 10.1269 60.5744 9.97229C61.6195 9.68575 62.6898 9.54248 63.7854 9.54248ZM63.482 20.8945C64.1562 20.8945 64.7545 20.7428 65.2771 20.4394C65.4002 20.3639 65.5149 20.2805 65.6212 20.1891C66.3188 19.5893 66.3895 18.5784 66.3895 17.6583V17.6583H63.6842C62.0661 17.6583 61.2571 18.1892 61.2571 19.2511C61.2571 19.7568 61.4509 20.1613 61.8386 20.4647C62.2431 20.7512 62.7909 20.8945 63.482 20.8945Z" fill="#0C0C0C"/>
<path d="M75.5719 9.51979H77.544C78.3818 9.51979 79.061 10.199 79.061 11.0368V11.0368C79.061 11.8746 78.3818 12.5537 77.544 12.5537H75.6731V21.5862C75.6731 22.6754 74.7902 23.5583 73.701 23.5583V23.5583C72.6119 23.5583 71.7289 22.6754 71.7289 21.5862V12.5537H71.1474C70.3096 12.5537 69.6305 11.8746 69.6305 11.0368V11.0368C69.6305 10.199 70.3096 9.51979 71.1474 9.51979H71.7289V9.44135C71.7289 7.89067 72.184 6.66023 73.0942 5.75004C74.0213 4.83986 75.3191 4.38477 76.9878 4.38477C77.5777 4.38477 78.1339 4.45219 78.6565 4.58703C78.7601 4.6097 78.8603 4.63455 78.9571 4.66157C79.6016 4.84154 79.8359 5.56045 79.6077 6.18949L79.5366 6.38537C79.246 7.18628 78.219 7.49457 77.367 7.49457V7.49457C76.1703 7.49457 75.5719 8.15192 75.5719 9.46663V9.51979Z" fill="#0C0C0C"/>
<path d="M91.5225 16.5964V16.5964C91.5225 17.1972 90.9828 17.6583 90.382 17.6583H81.1565C81.3419 18.5011 81.7802 19.1669 82.4712 19.6557C83.1623 20.1445 84.0219 20.3889 85.0501 20.3889C85.758 20.3889 86.3816 20.2877 86.921 20.0855C86.9854 20.0601 87.0492 20.0331 87.1125 20.0046C87.9369 19.6328 88.9677 19.6211 89.5808 20.2859V20.2859C90.1388 20.891 90.163 21.8432 89.4876 22.3139C88.3061 23.1374 86.7932 23.5492 84.9489 23.5492C83.4151 23.5492 82.0583 23.2543 80.8784 22.6643C79.6985 22.0575 78.7883 21.2232 78.1478 20.1613C77.5073 19.0994 77.1871 17.8943 77.1871 16.5459C77.1871 15.2143 77.4989 14.0176 78.1226 12.9557C78.7631 11.8769 79.6311 11.0426 80.7267 10.4527C81.8391 9.84588 83.078 9.54248 84.4433 9.54248C85.7749 9.54248 86.98 9.82902 88.0587 10.4021C89.1375 10.9752 89.9802 11.8011 90.587 12.8798C91.2107 13.9417 91.5225 15.1806 91.5225 16.5964ZM84.4686 12.5259C83.5752 12.5259 82.8252 12.7787 82.2184 13.2844C81.6116 13.79 81.2408 14.4811 81.1059 15.3576H87.8059C87.6711 14.4979 87.3003 13.8153 86.6935 13.3096C86.0867 12.7871 85.345 12.5259 84.4686 12.5259Z" fill="#0C0C0C"/>
<path d="M104.818 16.5964V16.5964C104.818 17.1972 104.278 17.6583 103.677 17.6583H94.4518C94.6372 18.5011 95.0754 19.1669 95.7665 19.6557C96.4576 20.1445 97.3172 20.3889 98.3453 20.3889C99.0533 20.3889 99.6769 20.2877 100.216 20.0855C100.281 20.0601 100.345 20.0331 100.408 20.0046C101.232 19.6328 102.263 19.6211 102.876 20.2859V20.2859C103.434 20.891 103.458 21.8432 102.783 22.3139C101.601 23.1374 100.088 23.5492 98.2442 23.5492C96.7104 23.5492 95.3535 23.2543 94.1737 22.6643C92.9938 22.0575 92.0836 21.2232 91.4431 20.1613C90.8026 19.0994 90.4824 17.8943 90.4824 16.5459C90.4824 15.2143 90.7942 14.0176 91.4178 12.9557C92.0583 11.8769 92.9264 11.0426 94.022 10.4527C95.1344 9.84588 96.3733 9.54248 97.7385 9.54248C99.0701 9.54248 100.275 9.82902 101.354 10.4021C102.433 10.9752 103.276 11.8011 103.882 12.8798C104.506 13.9417 104.818 15.1806 104.818 16.5964ZM97.7638 12.5259C96.8705 12.5259 96.1204 12.7787 95.5137 13.2844C94.9069 13.79 94.536 14.4811 94.4012 15.3576H101.101C100.966 14.4979 100.596 13.8153 99.9887 13.3096C99.3819 12.7871 98.6403 12.5259 97.7638 12.5259Z" fill="#0C0C0C"/>
<path d="M116.672 4.58703C117.761 4.58703 118.644 5.46995 118.644 6.5591V21.6657C118.644 22.7059 117.801 23.5492 116.76 23.5492H116.647C115.669 23.5492 114.877 22.7569 114.877 21.7794V21.7794C113.899 22.9593 112.483 23.5492 110.629 23.5492C109.348 23.5492 108.185 23.2627 107.14 22.6896C106.112 22.1165 105.303 21.299 104.713 20.2372C104.123 19.1753 103.828 17.9448 103.828 16.5459C103.828 15.1469 104.123 13.9164 104.713 12.8545C105.303 11.7927 106.112 10.9752 107.14 10.4021C108.185 9.82902 109.348 9.54248 110.629 9.54248C112.365 9.54248 113.722 10.0903 114.7 11.1859V6.5591C114.7 5.46995 115.583 4.58703 116.672 4.58703V4.58703ZM111.312 20.313C112.306 20.313 113.132 19.9759 113.79 19.3017C114.447 18.6106 114.776 17.692 114.776 16.5459C114.776 15.3997 114.447 14.4895 113.79 13.8153C113.132 13.1242 112.306 12.7787 111.312 12.7787C110.301 12.7787 109.466 13.1242 108.809 13.8153C108.152 14.4895 107.823 15.3997 107.823 16.5459C107.823 17.692 108.152 18.6106 108.809 19.3017C109.466 19.9759 110.301 20.313 111.312 20.313Z" fill="#0C0C0C"/>
<ellipse cx="121.632" cy="21.7065" rx="1.90768" ry="1.90768" fill="#1A70F0"/>
<rect width="15.75" height="28" rx="0.904408" fill="#1A70F0"/>
<rect x="18.0547" width="15.75" height="28" rx="0.904408" fill="#1A70F0"/>
<rect x="36.1094" width="15.75" height="28" rx="0.904408" fill="#91D6FB"/>
</svg>
